<svg width="12" height="14" viewBox="0 0 12 14" fill="none" xmlns="http://www.w3.org/2000/svg">
<path d="M11.5571 12.5693C11.2731 12.8505 10.8879 13.0086 10.4862 13.0086C10.0845 13.0086 9.69928 12.8505 9.41525 12.5693L6.06928 8.78176L2.72331 12.568C2.58309 12.7092 2.41604 12.8214 2.23179 12.8983C2.04755 12.9752 1.84975 13.0152 1.64982 13.016C1.44989 13.0168 1.25177 12.9784 1.0669 12.903C0.882025 12.8276 0.714057 12.7167 0.572681 12.5767C0.431305 12.4367 0.319319 12.2703 0.243184 12.0872C0.167048 11.9041 0.128268 11.7079 0.129082 11.5099C0.129896 11.3119 0.170288 11.116 0.247927 10.9335C0.325566 10.7511 0.438916 10.5856 0.581438 10.4468L4.06246 6.50926L0.580176 2.56926C0.437654 2.43039 0.324303 2.26495 0.246665 2.08248C0.169026 1.90001 0.128634 1.70412 0.12782 1.50611C0.127006 1.3081 0.165786 1.11189 0.241921 0.928798C0.318057 0.745706 0.430043 0.579354 0.571419 0.43934C0.712795 0.299325 0.880763 0.188418 1.06564 0.113015C1.25051 0.0376123 1.44862 -0.000793838 1.64856 1.24362e-05C1.84849 0.00081871 2.04629 0.0408212 2.23053 0.117713C2.41478 0.194604 2.58183 0.306863 2.72205 0.448013L6.06928 4.23676L9.41525 0.448013C9.55547 0.306863 9.72252 0.194604 9.90676 0.117713C10.091 0.0408212 10.2888 0.00081871 10.4887 1.24362e-05C10.6887 -0.000793838 10.8868 0.0376123 11.0717 0.113015C11.2565 0.188418 11.4245 0.299325 11.5659 0.43934C11.7073 0.579354 11.8192 0.745706 11.8954 0.928798C11.9715 1.11189 12.0103 1.3081 12.0095 1.50611C12.0087 1.70412 11.9683 1.90001 11.8906 2.08248C11.813 2.26495 11.6996 2.43039 11.5571 2.56926L8.0761 6.50926L11.5571 10.4468C11.6979 10.5861 11.8097 10.7515 11.8859 10.9336C11.9621 11.1157 12.0013 11.3109 12.0013 11.508C12.0013 11.7051 11.9621 11.9003 11.8859 12.0824C11.8097 12.2645 11.6979 12.43 11.5571 12.5693Z" fill="black"/>
</svg>
